<?xml version="1.0" encoding="utf-8"?>
<!-- Generator: Adobe Illustrator 16.0.0, SVG Export Plug-In . SVG Version: 6.00 Build 0)  -->
<!DOCTYPE svg PUBLIC "-//W3C//DTD SVG 1.1//EN" "http://www.w3.org/Graphics/SVG/1.1/DTD/svg11.dtd">
<svg version="1.1" id="Layer_1" xmlns="http://www.w3.org/2000/svg" xmlns:xlink="http://www.w3.org/1999/xlink" x="0px" y="0px"
	 width="200px" height="200px" viewBox="0 0 200 200" enable-background="new 0 0 200 200" xml:space="preserve">
<g>
	<g>
		<g id="XMLID_1_">
			<g>
				<path fill="#C782A2" d="M62.153,108.587v5.909c0,0.128-0.017,0.251-0.047,0.369c-0.013,0.049-0.027,0.094-0.043,0.138
					c0,0,0,0,0,0.002c-0.025,0.067-0.056,0.132-0.089,0.195c-0.047,0.083-0.099,0.162-0.16,0.235
					c-0.031,0.036-0.062,0.072-0.096,0.105c-0.049,0.053-0.104,0.1-0.161,0.14c-0.038,0.028-0.076,0.054-0.117,0.079
					c-0.02,0.014-0.041,0.025-0.062,0.036c-0.062,0.033-0.126,0.063-0.194,0.089c-0.001,0-0.001,0-0.001,0
					c-0.045,0.017-0.091,0.03-0.139,0.043c-0.119,0.03-0.241,0.047-0.369,0.047h-1.479l-4.037,25.577
					c-0.227,1.438-1.465,2.495-2.919,2.495H30.697c-1.455,0-2.693-1.058-2.92-2.495l-0.072-0.46H45.32
					c1.454,0,2.692-1.059,2.919-2.493l3.572-22.624H23.74h-1.479c0-1.633,1.322-2.955,2.955-2.955h32.505
					c0.816,0,1.477-0.661,1.477-1.477C59.198,109.909,60.522,108.587,62.153,108.587z"/>
				<path fill="#CB202C" d="M62.106,114.865c-0.012,0.047-0.025,0.094-0.043,0.138C62.08,114.959,62.093,114.914,62.106,114.865z"/>
				<path fill="#CB202C" d="M62.063,115.005c-0.024,0.067-0.055,0.132-0.089,0.195C62.008,115.137,62.038,115.072,62.063,115.005z"
					/>
				<path fill="#CB202C" d="M61.975,115.2c-0.045,0.084-0.098,0.164-0.16,0.235C61.875,115.362,61.928,115.283,61.975,115.2z"/>
				<path fill="#CB202C" d="M61.815,115.436c-0.03,0.038-0.061,0.074-0.096,0.105C61.753,115.508,61.784,115.472,61.815,115.436z"/>
				<path fill="#ED91C5" d="M60.676,107.11c0.812,0,1.477,0.664,1.477,1.477c-1.631,0-2.955,1.322-2.955,2.956
					c0,0.814-0.66,1.477-1.477,1.477H25.216c-1.633,0-2.955,1.322-2.955,2.955c-0.812,0-1.477-0.665-1.477-1.479v-5.909
					c0-0.812,0.666-1.477,1.477-1.477h17.731h1.477h1.477H60.676L60.676,107.11z"/>
				<path fill="#CB202C" d="M61.559,115.681c-0.038,0.03-0.077,0.056-0.117,0.079C61.482,115.734,61.521,115.709,61.559,115.681z"/>
				<path fill="#CB202C" d="M61.379,115.796c-0.062,0.034-0.128,0.064-0.194,0.089C61.253,115.859,61.317,115.829,61.379,115.796z"
					/>
				<path fill="#CB202C" d="M61.184,115.885c-0.045,0.018-0.091,0.031-0.138,0.043C61.092,115.915,61.139,115.901,61.184,115.885z"
					/>
				<path fill="#5BA364" d="M60.516,70.18c0.515,3.801-0.197,7.044-2.328,9.173c-0.371,0.37-0.774,0.697-1.211,0.982
					c-0.187,0.121-0.378,0.235-0.575,0.342c-0.46,0.249-0.951,0.458-1.469,0.626c-1.109,0.36-2.342,0.536-3.667,0.536
					c-0.725,0-1.479-0.053-2.256-0.156c-4.073,0-6.063,3.314-6.063,7.388v18.04h-1.477V89.07c0-4.812,2.576-8.713,7.387-8.713h0.259
					c0.784,0,1.536-0.311,2.089-0.864L60.516,70.18z"/>
				<path fill="#5BA364" d="M60.516,49.646c0.515,3.801-0.197,7.044-2.328,9.174c-0.404,0.402-0.847,0.754-1.327,1.055
					c-0.904,0.571-1.94,0.967-3.08,1.195c-0.143,0.028-0.288,0.056-0.436,0.078c-0.117,0.02-0.234,0.036-0.354,0.051
					c-0.126,0.017-0.255,0.032-0.384,0.043c-0.866,0.086-1.782,0.085-2.736,0.004c-0.284-0.024-0.571-0.056-0.86-0.095h-0.001
					c-1.72,0-3.068,0.59-4.051,1.579c-1.347,1.354-2.013,3.455-2.013,5.809v12.582v0.002c-0.575,0.568-1.064,1.229-1.477,1.955
					V68.539c0-2.406,0.644-4.583,1.89-6.16c1.244-1.575,3.092-2.552,5.498-2.552v-0.003h0.259c0.783,0,1.535-0.311,2.089-0.864
					L60.516,49.646z"/>
				<path fill="#83C68D" d="M60.516,70.178v0.002l-9.312,9.313c-0.554,0.554-1.306,0.864-2.089,0.864h-0.259
					c-4.812,0-7.387,3.901-7.387,8.713v18.04h-1.477v-7.697v-4.775c-1.604-2.369-4.343-3.936-7.388-3.936v-0.005h-0.258
					c-0.784,0-1.535-0.311-2.089-0.864l-9.312-9.313c3.8-0.515,7.045,0.196,9.173,2.329c1.547,1.552,2.338,3.704,2.462,6.229
					c2.879,0.035,5.516,1.256,7.411,3.193V80.206V75.43c-1.603-2.368-4.342-3.936-7.387-3.936V71.49h-0.258
					c-0.784,0-1.536-0.311-2.09-0.865l-9.312-9.313c3.801-0.515,7.045,0.197,9.173,2.33c1.548,1.552,2.339,3.704,2.462,6.229
					c2.88,0.036,5.516,1.257,7.412,3.194v-4.525c0-5.659,3.268-10.266,8.89-10.336c0.123-2.522,0.911-4.674,2.46-6.225
					c2.132-2.139,5.377-2.843,9.174-2.332l-9.312,9.313c-0.554,0.554-1.306,0.864-2.089,0.864h-0.259v0.003
					c-2.405,0-4.254,0.977-5.498,2.552c-1.245,1.577-1.889,3.754-1.889,6.16v14.539c0.413-0.726,0.902-1.387,1.477-1.955v-0.002
					c1.48-1.467,3.485-2.356,5.936-2.388c0.123-2.523,0.911-4.674,2.46-6.225C53.473,70.372,56.718,69.666,60.516,70.178z"/>
				<path fill="#3CB44A" d="M58.188,58.82v0.002c-0.403,0.401-0.846,0.753-1.327,1.053C57.341,59.574,57.784,59.223,58.188,58.82z"
					/>
				<path fill="#0E9247" d="M56.401,80.677c0.197-0.106,0.389-0.221,0.575-0.342C56.79,80.456,56.6,80.57,56.401,80.677z"/>
				<path fill="#3CB44A" d="M53.346,61.148c0.147-0.022,0.293-0.05,0.436-0.078C53.639,61.099,53.493,61.126,53.346,61.148z"/>
				<path fill="#3CB44A" d="M52.607,61.242c0.129-0.011,0.258-0.026,0.384-0.043C52.866,61.216,52.736,61.231,52.607,61.242z"/>
				<path fill="#ED91C5" d="M51.812,115.975l-3.572,22.624c-0.227,1.435-1.465,2.492-2.919,2.492H27.705l-3.965-25.116H51.812
					L51.812,115.975z"/>
				<path fill="#0E9247" d="M49.009,81.683c0.778,0.104,1.531,0.156,2.256,0.156c1.325,0,2.558-0.176,3.667-0.536
					c-1.109,0.361-2.342,0.537-3.668,0.537c-0.725,0-1.477-0.052-2.251-0.155h-0.003V81.683z"/>
				<path fill="#3CB44A" d="M49.009,61.152c-1.718,0-3.066,0.59-4.051,1.578C45.942,61.741,47.29,61.151,49.009,61.152l0.002-0.001
					c0.289,0.039,0.576,0.07,0.86,0.095C49.587,61.222,49.3,61.191,49.009,61.152z"/>
				<path fill="#5BA364" d="M39.992,94.638v4.775c0-4.073-3.469-7.388-7.542-7.388v-0.001h-0.001
					c-0.29,0.039-0.577,0.07-0.859,0.094c-0.291,0.024-0.579,0.043-0.861,0.052c-0.716,0.024-1.408,0-2.069-0.075
					c-0.002,0.002-0.004,0.002-0.006,0c-0.248-0.028-0.491-0.064-0.729-0.106c-0.08-0.014-0.159-0.028-0.239-0.045
					c-0.396-0.08-0.781-0.179-1.151-0.299c-0.073-0.024-0.147-0.048-0.219-0.073c-0.219-0.077-0.435-0.163-0.644-0.254
					c-0.114-0.052-0.229-0.104-0.339-0.16c-0.766-0.377-1.456-0.863-2.056-1.464c-0.106-0.105-0.209-0.215-0.308-0.326
					c-0.05-0.056-0.099-0.111-0.146-0.168c-0.095-0.114-0.188-0.229-0.276-0.348c-0.089-0.12-0.173-0.24-0.255-0.365
					c-0.245-0.372-0.458-0.766-0.642-1.181c-0.062-0.139-0.119-0.279-0.174-0.423c-0.027-0.07-0.054-0.143-0.08-0.216
					c-0.051-0.144-0.099-0.291-0.144-0.441c-0.07-0.236-0.133-0.48-0.188-0.728c-0.029-0.129-0.056-0.261-0.08-0.394
					c-0.004-0.023-0.009-0.048-0.014-0.072c-0.025-0.148-0.048-0.298-0.069-0.45c-0.169-1.253-0.15-2.617,0.045-4.062l9.312,9.313
					c0.555,0.554,1.306,0.864,2.09,0.864h0.258v0.005C35.649,90.702,38.389,92.269,39.992,94.638z"/>
				<path fill="#5BA364" d="M39.992,75.43v4.776c0-4.072-3.469-7.387-7.542-7.387v-0.003h-0.001
					c-0.386,0.052-0.766,0.09-1.138,0.117c-0.742,0.051-1.458,0.053-2.144,0.002c-0.148-0.011-0.297-0.024-0.442-0.041
					c-0.035-0.003-0.069-0.008-0.105-0.012c-0.143-0.017-0.284-0.034-0.421-0.056c-0.338-0.053-0.667-0.117-0.988-0.196
					c-0.153-0.038-0.304-0.078-0.45-0.124c-0.152-0.045-0.302-0.092-0.451-0.145c-0.144-0.052-0.287-0.105-0.426-0.162
					c-0.143-0.059-0.283-0.121-0.421-0.185c-0.134-0.063-0.264-0.13-0.391-0.198c-0.664-0.359-1.266-0.801-1.797-1.332
					c-0.106-0.104-0.209-0.214-0.308-0.325c-0.049-0.056-0.099-0.111-0.146-0.169c-0.095-0.113-0.188-0.229-0.276-0.348
					c-0.089-0.12-0.173-0.24-0.255-0.365c-0.245-0.372-0.458-0.765-0.643-1.181c-0.062-0.138-0.118-0.279-0.174-0.422
					c-0.027-0.07-0.054-0.143-0.08-0.216c-0.051-0.145-0.099-0.291-0.144-0.441c-0.07-0.237-0.134-0.48-0.188-0.728
					c-0.029-0.13-0.056-0.262-0.08-0.394c-0.005-0.024-0.009-0.049-0.014-0.072c-0.025-0.148-0.048-0.299-0.069-0.45
					c-0.169-1.253-0.15-2.617,0.045-4.063l9.312,9.313c0.554,0.555,1.306,0.865,2.09,0.865h0.258v0.004
					C35.649,71.494,38.389,73.062,39.992,75.43z"/>
				<path fill="#3CB44A" d="M32.45,92.024L32.45,92.024c-0.29,0.039-0.577,0.07-0.86,0.094c0.283-0.023,0.569-0.055,0.859-0.094
					H32.45z"/>
				<path fill="#3CB44A" d="M32.45,72.816v0.003c-0.386,0.05-0.766,0.089-1.139,0.114c0.372-0.027,0.751-0.065,1.138-0.117H32.45z"
					/>
				<path fill="#0E9247" d="M28.659,92.095c0.662,0.075,1.354,0.1,2.069,0.075C30.011,92.195,29.32,92.17,28.659,92.095z"/>
				<path fill="#0E9247" d="M28.725,72.895c0.145,0.017,0.294,0.03,0.442,0.041C29.019,72.925,28.872,72.911,28.725,72.895z"/>
				<path fill="#0E9247" d="M28.198,72.827c0.138,0.021,0.279,0.039,0.421,0.056C28.478,72.868,28.337,72.849,28.198,72.827z"/>
				<path fill="#0E9247" d="M27.923,91.988c0.238,0.042,0.481,0.078,0.729,0.106C28.404,92.067,28.161,92.031,27.923,91.988z"/>
				<path fill="#0E9247" d="M26.76,72.507c0.147,0.046,0.297,0.086,0.45,0.124C27.058,72.593,26.908,72.553,26.76,72.507z"/>
				<path fill="#0E9247" d="M26.533,91.645c0.371,0.12,0.755,0.219,1.151,0.299C27.288,91.865,26.903,91.766,26.533,91.645z"/>
				<path fill="#0E9247" d="M26.313,91.571c0.072,0.025,0.146,0.049,0.219,0.073C26.459,91.622,26.387,91.597,26.313,91.571z"/>
				<path fill="#3CB44A" d="M26.309,72.362c-0.144-0.052-0.287-0.105-0.426-0.162C26.022,72.257,26.165,72.311,26.309,72.362z"/>
				<path fill="#0E9247" d="M25.331,91.157c0.111,0.057,0.226,0.108,0.339,0.16C25.554,91.266,25.442,91.214,25.331,91.157z"/>
				<path fill="#3CB44A" d="M25.463,72.016c-0.132-0.063-0.264-0.13-0.392-0.198C25.199,71.886,25.329,71.952,25.463,72.016z"/>
				<path fill="#0E9247" d="M23.274,70.485h-0.002c-0.104-0.104-0.208-0.214-0.306-0.325C23.066,70.271,23.168,70.381,23.274,70.485
					z"/>
				<path fill="#0E9247" d="M23.274,89.693h-0.002c-0.104-0.105-0.208-0.215-0.306-0.326C23.066,89.479,23.168,89.588,23.274,89.693
					z"/>
				<path fill="#0E9247" d="M22.545,69.644c0.089,0.118,0.181,0.234,0.276,0.348C22.725,69.878,22.634,69.762,22.545,69.644z"/>
				<path fill="#0E9247" d="M22.545,88.852c0.089,0.118,0.181,0.233,0.276,0.348C22.725,89.085,22.634,88.97,22.545,88.852z"/>
				<path fill="#0E9247" d="M22.29,69.278c0.083,0.125,0.167,0.245,0.255,0.365C22.456,69.525,22.373,69.403,22.29,69.278z"/>
				<path fill="#0E9247" d="M22.29,88.486c0.083,0.125,0.167,0.245,0.255,0.365C22.456,88.732,22.373,88.611,22.29,88.486z"/>
				<path fill="#3CB44A" d="M21.473,67.676c0.056,0.143,0.113,0.284,0.174,0.422C21.586,67.96,21.527,67.818,21.473,67.676z"/>
				<path fill="#3CB44A" d="M21.473,86.883c0.056,0.144,0.113,0.284,0.174,0.423C21.586,87.167,21.527,87.026,21.473,86.883z"/>
				<path fill="#3CB44A" d="M21.25,67.019c0.045,0.15,0.093,0.297,0.144,0.441C21.343,67.314,21.294,67.167,21.25,67.019z"/>
				<path fill="#3CB44A" d="M21.25,86.226c0.045,0.15,0.093,0.298,0.144,0.441C21.343,86.521,21.294,86.375,21.25,86.226z"/>
				<path fill="#3CB44A" d="M20.982,65.897c0.024,0.132,0.051,0.264,0.08,0.394C21.033,66.161,21.006,66.031,20.982,65.897z"/>
				<path fill="#3CB44A" d="M20.982,85.104c0.024,0.133,0.051,0.265,0.08,0.394C21.033,85.369,21.006,85.238,20.982,85.104z"/>
				<path fill="#3CB44A" d="M20.9,65.375c0.021,0.151,0.043,0.302,0.069,0.45C20.943,65.677,20.919,65.526,20.9,65.375z"/>
				<path fill="#3CB44A" d="M20.9,84.582c0.021,0.152,0.043,0.302,0.069,0.45C20.943,84.884,20.919,84.734,20.9,84.582z"/>
			</g>
		</g>
	</g>
</g>
<rect x="71.569" y="90.059" fill="none" width="108.545" height="37.057"/>
<text transform="matrix(1 0 0 1 71.5688 116.3379)" fill="#ED91C5" font-family="'MaisonNeueTRIAL-Bold'" font-size="36">planty</text>
</svg>
