<?xml version="1.0" encoding="iso-8859-1"?>
<!-- Generator: Adobe Illustrator 18.0.0, SVG Export Plug-In . SVG Version: 6.00 Build 0)  -->
<!DOCTYPE svg PUBLIC "-//W3C//DTD SVG 1.1//EN" "http://www.w3.org/Graphics/SVG/1.1/DTD/svg11.dtd">
<svg version="1.1" id="Capa_1" xmlns="http://www.w3.org/2000/svg" xmlns:xlink="http://www.w3.org/1999/xlink" x="0px" y="0px"
	 viewBox="0 0 55 55" style="enable-background:new 0 0 55 55;" xml:space="preserve">
<rect x="13.5" y="35" style="fill:#D4DDE1;" width="28" height="6"/>
<polygon style="fill:#C7C7C7;" points="35.5,55 19.5,55 15.885,41 39.115,41 "/>
<path style="fill:#FFFFFF;" d="M28.5,45h-6c-0.552,0-1-0.447-1-1s0.448-1,1-1h6c0.552,0,1,0.447,1,1S29.052,45,28.5,45z"/>
<path style="fill:#FFFFFF;" d="M31.5,45c-0.26,0-0.52-0.11-0.71-0.29c-0.18-0.19-0.29-0.45-0.29-0.71s0.11-0.521,0.29-0.71
	c0.37-0.36,1.04-0.37,1.42,0c0.18,0.189,0.29,0.45,0.29,0.71s-0.1,0.52-0.29,0.71C32.02,44.89,31.76,45,31.5,45z"/>
<path style="fill:#FFFFFF;" d="M27.5,48h-2c-0.552,0-1-0.447-1-1s0.448-1,1-1h2c0.552,0,1,0.447,1,1S28.052,48,27.5,48z"/>
<path style="fill:#FFFFFF;" d="M22.5,48c-0.26,0-0.52-0.11-0.71-0.29c-0.18-0.19-0.29-0.44-0.29-0.71c0-0.26,0.11-0.521,0.29-0.71
	c0.37-0.37,1.05-0.37,1.42,0c0.18,0.189,0.29,0.45,0.29,0.71c0,0.27-0.11,0.52-0.3,0.71C23.02,47.89,22.76,48,22.5,48z"/>
<polygon style="fill:#2E9650;" points="19.5,35 15.5,35 15.5,16 17.5,12 19.5,16 "/>
<polygon style="fill:#115929;" points="23.5,35 19.5,35 19.5,9 21.5,2 23.5,9 "/>
<polygon style="fill:#115929;" points="35.5,35 39.5,35 39.5,16 37.5,12 35.5,16 "/>
<polygon style="fill:#23A24D;" points="31.5,35 35.5,35 35.5,5 33.5,0 31.5,5 "/>
<polygon style="fill:#88C057;" points="27.5,35 23.5,35 23.5,21 25.5,17 27.5,21 "/>
<polygon style="fill:#61B872;" points="31.5,35 27.5,35 27.5,14 29.5,10 31.5,14 "/>
<g>
</g>
<g>
</g>
<g>
</g>
<g>
</g>
<g>
</g>
<g>
</g>
<g>
</g>
<g>
</g>
<g>
</g>
<g>
</g>
<g>
</g>
<g>
</g>
<g>
</g>
<g>
</g>
<g>
</g>
</svg>
