<?xml version="1.0" encoding="iso-8859-1"?>
<!-- Generator: Adobe Illustrator 19.0.0, SVG Export Plug-In . SVG Version: 6.00 Build 0)  -->
<svg version="1.1" id="Capa_1" xmlns="http://www.w3.org/2000/svg" xmlns:xlink="http://www.w3.org/1999/xlink" x="0px" y="0px"
	 viewBox="0 0 470 470" style="enable-background:new 0 0 470 470;" xml:space="preserve">
<g>
	<path d="M372.81,48.062c-22.594,0-40.976,18.382-40.976,40.976v77.608c0,23.154-16.968,42.411-39.121,46.01V57.713
		C292.713,25.89,266.823,0,235,0s-57.713,25.89-57.713,57.713v221.893c-22.153-3.599-39.121-22.856-39.121-46.01v-77.608
		c0-22.594-18.382-40.976-40.976-40.976c-22.594,0-40.976,18.381-40.976,40.976v77.608c0,68.376,53.655,124.458,121.072,128.356V455
		h-22.5c-4.142,0-7.5,3.358-7.5,7.5s3.358,7.5,7.5,7.5h160.427c4.142,0,7.5-3.358,7.5-7.5s-3.358-7.5-7.5-7.5h-22.5V295.001
		c67.417-3.898,121.072-59.979,121.072-128.356V89.037C413.786,66.443,395.404,48.062,372.81,48.062z M398.786,166.646
		c0,62.624-50.948,113.572-113.572,113.572c-4.142,0-7.5,3.358-7.5,7.5V455h-85.427V354.669c0-4.142-3.358-7.5-7.5-7.5
		c-62.624,0-113.572-50.948-113.572-113.572v-77.608c0-14.323,11.652-25.976,25.976-25.976c14.323,0,25.976,11.653,25.976,25.976
		v77.608c0,31.438,23.67,57.434,54.121,61.148v12.973c0,4.142,3.358,7.5,7.5,7.5s7.5-3.358,7.5-7.5V57.713
		C192.287,34.161,211.448,15,235,15s42.713,19.161,42.713,42.713v183.053c0,4.142,3.358,7.5,7.5,7.5s7.5-3.358,7.5-7.5v-12.973
		c30.451-3.714,54.121-29.711,54.121-61.148V89.037c0-14.323,11.653-25.976,25.976-25.976s25.976,11.653,25.976,25.976V166.646z"/>
	<path d="M235,400.013c-4.142,0-7.5,3.358-7.5,7.5v15c0,4.142,3.358,7.5,7.5,7.5s7.5-3.358,7.5-7.5v-15
		C242.5,403.371,239.142,400.013,235,400.013z"/>
	<path d="M255.213,150.013c-4.142,0-7.5,3.358-7.5,7.5v15c0,4.142,3.358,7.5,7.5,7.5s7.5-3.358,7.5-7.5v-15
		C262.713,153.371,259.355,150.013,255.213,150.013z"/>
	<path d="M214.787,100.013c-4.142,0-7.5,3.358-7.5,7.5v15c0,4.142,3.358,7.5,7.5,7.5s7.5-3.358,7.5-7.5v-15
		C222.287,103.371,218.929,100.013,214.787,100.013z"/>
	<path d="M372.81,115.013c-4.142,0-7.5,3.358-7.5,7.5v15c0,4.142,3.358,7.5,7.5,7.5s7.5-3.358,7.5-7.5v-15
		C380.31,118.371,376.952,115.013,372.81,115.013z"/>
	<path d="M97.19,205.013c-4.142,0-7.5,3.358-7.5,7.5v15c0,4.142,3.358,7.5,7.5,7.5s7.5-3.358,7.5-7.5v-15
		C104.69,208.371,101.332,205.013,97.19,205.013z"/>
</g>
<g>
</g>
<g>
</g>
<g>
</g>
<g>
</g>
<g>
</g>
<g>
</g>
<g>
</g>
<g>
</g>
<g>
</g>
<g>
</g>
<g>
</g>
<g>
</g>
<g>
</g>
<g>
</g>
<g>
</g>
</svg>
