<?xml version="1.0" encoding="iso-8859-1"?>
<!-- Generator: Adobe Illustrator 19.1.0, SVG Export Plug-In . SVG Version: 6.00 Build 0)  -->
<svg version="1.1" id="Capa_1" xmlns="http://www.w3.org/2000/svg" xmlns:xlink="http://www.w3.org/1999/xlink" x="0px" y="0px"
	 viewBox="0 0 50.68 50.68" style="enable-background:new 0 0 50.68 50.68;" xml:space="preserve">
<path style="fill:#1E201D;" d="M42.331,23.173c2.301,0,4.397,0.936,5.904,2.46c1.508,1.508,2.444,3.603,2.444,5.905
	s-0.936,4.397-2.444,5.905c-1.508,1.524-3.603,2.46-5.904,2.46H11.237c-3.111,0-5.92-1.27-7.952-3.302C1.254,34.57,0,31.76,0,28.665
	c0-3.111,1.254-5.92,3.286-7.952c2.032-2.032,4.841-3.286,7.952-3.286c0.746,0,1.492,0.079,2.222,0.222
	c0.397,0.079,0.794,0.19,1.19,0.317c1.19-2.048,2.889-3.762,4.905-5.016c2.222-1.381,4.841-2.175,7.635-2.175
	c3.857,0,7.365,1.508,9.968,3.952c2.333,2.19,3.952,5.159,4.444,8.492C41.839,23.189,42.077,23.173,42.331,23.173L42.331,23.173z
	 M46.648,27.205c-1.095-1.095-2.635-1.778-4.317-1.778c-0.254,0-0.508,0.016-0.746,0.032c-0.254,0.032-0.492,0.079-0.714,0.127
	l-1.302,0.317L39.49,24.57c-0.19-3.238-1.635-6.127-3.857-8.206c-2.206-2.079-5.174-3.349-8.444-3.349
	c-2.381,0-4.587,0.667-6.476,1.841c-1.936,1.19-3.524,2.921-4.539,4.984l-0.476,0.936l-0.968-0.413
	c-0.54-0.222-1.111-0.397-1.698-0.524c-0.571-0.111-1.175-0.175-1.794-0.175c-2.492,0-4.73,1.016-6.365,2.635
	c-1.619,1.635-2.635,3.873-2.635,6.365c0,2.476,1.016,4.73,2.635,6.349c1.635,1.635,3.873,2.635,6.365,2.635h31.094
	c1.682,0,3.222-0.683,4.317-1.778c1.111-1.111,1.794-2.651,1.794-4.333S47.759,28.316,46.648,27.205L46.648,27.205z"/>
<g>
</g>
<g>
</g>
<g>
</g>
<g>
</g>
<g>
</g>
<g>
</g>
<g>
</g>
<g>
</g>
<g>
</g>
<g>
</g>
<g>
</g>
<g>
</g>
<g>
</g>
<g>
</g>
<g>
</g>
</svg>
