<?xml version="1.0" encoding="iso-8859-1"?>
<!-- Generator: Adobe Illustrator 19.0.0, SVG Export Plug-In . SVG Version: 6.00 Build 0)  -->
<svg xmlns="http://www.w3.org/2000/svg" xmlns:xlink="http://www.w3.org/1999/xlink" version="1.1" id="Layer_1" x="0px" y="0px" viewBox="0 0 406.61 406.61" style="enable-background:new 0 0 406.61 406.61;" xml:space="preserve" width="512" height="512">
<g>
	<path style="fill:#4CC18E;" d="M307.798,0c-21.88,20.27-36.43,42.86-46.01,64.99c-4.9,11.3-8.49,22.49-11.11,33.19l0.01,0.02   c-11.01,8.94-21.23,19.87-29.78,33.22c-7.25,11.29-13.29,24.32-17.6,39.34l1.33-27.08c0.02-0.87,0.05-1.73,0.1-2.59   C208.878,45.57,306.238,0.7,307.798,0z"/>
	<path style="fill:#4CC18E;" d="M204.638,143.68l-1.33,27.08h-0.01c-8.88-30.98-25.13-53.46-44.03-69.77v-0.01   c-2.48-10.73-5.93-21.98-10.69-33.39c-9.54-22.96-24.36-46.52-47.1-67.59c1.57,0.7,99.28,45.73,103.09,141.62   C204.598,142.3,204.618,142.99,204.638,143.68z"/>
	<path style="fill:#4CC18E;" d="M250.685,98.201c-11.01,8.94-21.23,19.87-29.78,33.22c-7.25,11.29-13.29,24.32-17.6,39.34h-0.01   c-8.88-30.98-25.13-53.46-44.03-69.77v-0.01c-50.02-43.18-118.63-43.18-118.63-43.18c104,34.67,130.67,138.67,130.67,138.67v0.77   h37.33h26.67v-0.77c0,0,26.67-104,130.67-138.67C365.975,57.801,300.355,57.801,250.685,98.201z"/>
	<path style="fill:#44B27D;" d="M250.678,98.18l0.01,0.02c-11.01,8.94-21.23,19.87-29.78,33.22c-7.25,11.29-13.29,24.32-17.6,39.34   h-0.01c-8.88-30.98-25.13-53.46-44.03-69.77v-0.01c-2.48-10.73-5.93-21.98-10.69-33.39c3.64,2.59,7.21,5.38,10.69,8.39v0.01   c18.9,16.31,35.15,38.79,44.03,69.77h0.01c0.4-1.4,0.82-2.78,1.26-4.14c0.04-0.18,0.1-0.35,0.17-0.53   c4.16-13.07,9.68-24.57,16.17-34.67c8.55-13.35,18.77-24.28,29.78-33.22c3.62-2.95,7.33-5.68,11.1-8.21   C256.888,76.29,253.298,87.48,250.678,98.18z"/>
	<path style="fill:#F24125;" d="M296.525,189.501l-14.69,157.82c-0.93,9.97-5.18,18.899-11.61,25.71h-133.84   c-6.431-6.811-10.681-15.74-11.611-25.71l-14.69-157.82h61.22h37.329h26.671H296.525"/>
	<path style="fill:#DD3B2A;" d="M147.085,189.501h-37l14.69,157.82c0.93,9.97,5.18,18.899,11.611,25.71h37   c-6.431-6.811-10.681-15.74-11.611-25.71L147.085,189.501"/>
	<path style="fill:#F7B239;" d="M315.816,368.031v2.581c0,19.879-16.12,35.999-36,35.999H126.795   c-19.879,0-35.999-16.12-35.999-35.999v-2.581h45.59h133.84H315.816"/>
	<path style="fill:#E5A030;" d="M125.795,368.031H90.796v2.581c0,19.879,16.12,35.999,35.999,35.999h35c-19.88,0-36-16.12-36-35.999   V368.031"/>
</g>















</svg>
