<?xml version="1.0" encoding="iso-8859-1"?>
<!-- Generator: Adobe Illustrator 18.0.0, SVG Export Plug-In . SVG Version: 6.00 Build 0)  -->
<!DOCTYPE svg PUBLIC "-//W3C//DTD SVG 1.1//EN" "http://www.w3.org/Graphics/SVG/1.1/DTD/svg11.dtd">
<svg version="1.1" id="Capa_1" xmlns="http://www.w3.org/2000/svg" xmlns:xlink="http://www.w3.org/1999/xlink" x="0px" y="0px"
	 viewBox="0 0 58 58" style="enable-background:new 0 0 58 58;" xml:space="preserve">
<path style="fill:none;stroke:#23A24D;stroke-width:2;stroke-linecap:round;stroke-miterlimit:10;" d="M29,38
	c0-16.029,9.84-29,22-29"/>
<path style="fill:none;stroke:#88C057;stroke-width:2;stroke-linecap:round;stroke-miterlimit:10;" d="M29,38
	c0-9.949,9.393-18,21-18"/>
<path style="fill:none;stroke:#23A24D;stroke-width:2;stroke-linecap:round;stroke-miterlimit:10;" d="M29,38c0-4.975,8.051-9,18-9"
	/>
<path style="fill:none;stroke:#88C057;stroke-width:2;stroke-linecap:round;stroke-miterlimit:10;" d="M29,38C29,21.971,19.16,9,7,9
	"/>
<path style="fill:none;stroke:#23A24D;stroke-width:2;stroke-linecap:round;stroke-miterlimit:10;" d="M29,38
	c0-9.949-9.393-18-21-18"/>
<path style="fill:none;stroke:#88C057;stroke-width:2;stroke-linecap:round;stroke-miterlimit:10;" d="M29,38c0-4.975-8.051-9-18-9"
	/>
<line style="fill:none;stroke:#61B872;stroke-width:2;stroke-linecap:round;stroke-miterlimit:10;" x1="29" y1="38" x2="29" y2="1"/>
<rect x="15" y="38" style="fill:#6B4842;" width="28" height="6"/>
<polygon style="fill:#9E6C53;" points="37,58 21,58 17.385,44 40.615,44 "/>
<path style="fill:#CE9982;" d="M30,48h-6c-0.552,0-1-0.447-1-1s0.448-1,1-1h6c0.552,0,1,0.447,1,1S30.552,48,30,48z"/>
<path style="fill:#CE9982;" d="M33,48c-0.26,0-0.52-0.11-0.71-0.29C32.11,47.52,32,47.26,32,47c0-0.271,0.11-0.521,0.29-0.71
	c0.38-0.37,1.05-0.36,1.42,0C33.89,46.47,34,46.729,34,47c0,0.26-0.11,0.52-0.29,0.71C33.52,47.89,33.26,48,33,48z"/>
<path style="fill:#CE9982;" d="M29,51h-2c-0.552,0-1-0.447-1-1s0.448-1,1-1h2c0.552,0,1,0.447,1,1S29.552,51,29,51z"/>
<path style="fill:#CE9982;" d="M24,51c-0.26,0-0.52-0.11-0.71-0.29C23.11,50.52,23,50.27,23,50c0-0.26,0.11-0.521,0.29-0.71
	c0.38-0.37,1.05-0.37,1.42,0C24.89,49.479,25,49.74,25,50s-0.11,0.52-0.29,0.71C24.52,50.89,24.26,51,24,51z"/>
<g>
</g>
<g>
</g>
<g>
</g>
<g>
</g>
<g>
</g>
<g>
</g>
<g>
</g>
<g>
</g>
<g>
</g>
<g>
</g>
<g>
</g>
<g>
</g>
<g>
</g>
<g>
</g>
<g>
</g>
</svg>
