<?xml version="1.0" encoding="iso-8859-1"?>
<!-- Generator: Adobe Illustrator 18.0.0, SVG Export Plug-In . SVG Version: 6.00 Build 0)  -->
<!DOCTYPE svg PUBLIC "-//W3C//DTD SVG 1.1//EN" "http://www.w3.org/Graphics/SVG/1.1/DTD/svg11.dtd">
<svg version="1.1" id="Capa_1" xmlns="http://www.w3.org/2000/svg" xmlns:xlink="http://www.w3.org/1999/xlink" x="0px" y="0px"
	 viewBox="0 0 512 512" style="enable-background:new 0 0 512 512;" xml:space="preserve">
<g>
	<path style="fill:#3CB44A;" d="M309.462,124.65c-8.387,8.398-12.653,20.045-13.324,33.708c-13.271,0.166-24.126,4.983-32.139,12.93
		v-68.129c0-22.054,10.774-40,32.83-40c20.594,2.734,38.164-1.133,49.695-12.617c11.546-11.532,15.398-29.102,12.609-49.68
		c-20.563-2.766-38.133,1.047-49.672,12.625c-8.388,8.399-12.654,20.045-13.324,33.708C265.697,47.575,248,72.52,248,103.158v24.498
		c-10.259-10.492-24.529-17.094-40.127-17.291c-0.664-13.67-4.947-25.325-13.326-33.73c-11.531-11.547-29.102-15.398-49.679-12.61
		c-2.774,20.563,1.046,38.133,12.617,49.672c11.516,11.5,29.093,15.336,49.68,12.633c22.055,0,40.835,17.945,40.835,40v65.326
		c-10.259-10.492-24.529-17.094-40.127-17.291c-0.664-13.67-4.947-25.325-13.326-33.73c-11.531-11.547-29.102-15.398-49.679-12.61
		c-2.774,20.563,1.046,38.133,12.617,49.672c11.516,11.5,29.093,15.336,49.68,12.633c22.055,0,40.835,17.945,40.835,40V312h16
		v-97.678c0-22.054,10.775-40,32.829-40c0,0.002,0,0.005,0,0.005c20.594,2.745,38.172-1.13,49.696-12.615
		c11.546-11.531,15.398-29.102,12.609-49.679C338.571,109.26,321.001,113.08,309.462,124.65z"/>
	<g>
		<path style="fill:#0E9247;" d="M264,103.158c0-22.055,10.773-40,32.83-40v-0.005h0.013l-0.001,0
			c20.587,2.739,38.162-1.136,49.683-12.618c11.545-11.53,15.396-29.099,12.61-49.674l-50.425,50.426
			c-3.001,3-7.071,4.686-11.314,4.686H296l0.001,0.014h0c-26.052,0-40.001,21.119-40.001,47.172v78.722
			c2.233-3.93,4.888-7.507,8-10.592V103.158z"/>
		<path style="fill:#0E9247;" d="M359.134,112.038l-50.425,50.426c-3,3.001-7.07,4.687-11.314,4.687h-1.394
			c-26.052,0-40.001,21.119-40.001,47.172V312h8v-97.678c0-22.055,10.774-40,32.829-40l0.001,0.007h0.014l-0.001,0.001
			c20.586,2.738,38.162-1.137,49.682-12.619C358.069,150.182,361.921,132.613,359.134,112.038z"/>
	</g>
	<path style="fill:#ED2C39;" d="M360,312H152c-4.4,0-8,3.6-8,8v32c0,4.4,3.6,8,8,8h8l21.868,138.495
		c1.227,7.777,7.93,13.505,15.804,13.505H240h16h58.328c7.873,0,14.576-5.728,15.804-13.505L352,360h8c4.4,0,8-3.6,8-8v-32
		C368,315.6,364.4,312,360,312z"/>
	<path style="fill:#CB202C;" d="M352,336c0,4.418-3.582,8-8,8H168c-8.837,0-16,7.163-16,16h160l-19.342,122.495
		c-1.228,7.777-7.93,13.505-15.804,13.505h-95.381l0.395,2.495c1.228,7.777,7.931,13.505,15.805,13.505h116.655
		c7.874,0,14.576-5.728,15.804-13.505L352,360h8c4.418,0,8-3.582,8-8v-32C359.163,320,352,327.163,352,336z"/>
	<g>
		<path style="fill:#0E9247;" d="M207.999,119.159l0.002-0.022h-1.395c-4.243,0-8.313-1.686-11.313-4.686l-50.425-50.426
			c-2.787,20.575,1.064,38.143,12.61,49.674c11.52,11.482,29.095,15.357,49.682,12.618l-0.001,0h0.005v0.013
			c22.055,0,40.835,17.945,40.835,40v-25.862C239.324,127.643,224.493,119.161,207.999,119.159z"/>
		<path style="fill:#0E9247;" d="M207.999,223.159l0.002-0.022h-1.395c-4.243,0-8.313-1.686-11.313-4.686l-50.425-50.426
			c-2.787,20.575,1.064,38.143,12.61,49.674c11.52,11.482,29.095,15.357,49.682,12.618l-0.001,0h0.005v0.013
			c22.055,0,40.835,17.945,40.835,40v-25.862C239.324,231.643,224.493,223.161,207.999,223.159z"/>
	</g>
</g>
<g>
</g>
<g>
</g>
<g>
</g>
<g>
</g>
<g>
</g>
<g>
</g>
<g>
</g>
<g>
</g>
<g>
</g>
<g>
</g>
<g>
</g>
<g>
</g>
<g>
</g>
<g>
</g>
<g>
</g>
</svg>
