<?xml version="1.0" encoding="iso-8859-1"?>
<!-- Generator: Adobe Illustrator 18.0.0, SVG Export Plug-In . SVG Version: 6.00 Build 0)  -->
<!DOCTYPE svg PUBLIC "-//W3C//DTD SVG 1.1//EN" "http://www.w3.org/Graphics/SVG/1.1/DTD/svg11.dtd">
<svg version="1.1" id="Capa_1" xmlns="http://www.w3.org/2000/svg" xmlns:xlink="http://www.w3.org/1999/xlink" x="0px" y="0px"
	 viewBox="0 0 59 59" style="enable-background:new 0 0 59 59;" xml:space="preserve">
<circle style="fill:#23A24D;stroke:#23A24D;stroke-width:2;stroke-linecap:round;stroke-miterlimit:10;" cx="29.5" cy="7" r="6"/>
<circle style="fill:#23A24D;stroke:#23A24D;stroke-width:2;stroke-linecap:round;stroke-miterlimit:10;" cx="38.5" cy="19" r="4"/>
<circle style="fill:#23A24D;stroke:#23A24D;stroke-width:2;stroke-linecap:round;stroke-miterlimit:10;" cx="20.5" cy="17" r="4"/>
<circle style="fill:#23A24D;stroke:#23A24D;stroke-width:2;stroke-linecap:round;stroke-miterlimit:10;" cx="38.5" cy="30" r="4"/>
<circle style="fill:#23A24D;stroke:#23A24D;stroke-width:2;stroke-linecap:round;stroke-miterlimit:10;" cx="20.5" cy="29" r="4"/>
<path style="fill:#6B5B4B;" d="M36.793,30.293L32.086,35H30.5v-9h2c0.13,0,0.26-0.027,0.382-0.077
	c0.123-0.051,0.233-0.124,0.326-0.217l4.999-4.999c0.391-0.391,0.391-1.023,0-1.414s-1.023-0.391-1.414,0L32.086,24H30.5V8
	c0-0.553-0.448-1-1-1s-1,0.447-1,1v14h-1.586l-4.707-4.707c-0.391-0.391-1.023-0.391-1.414,0s-0.391,1.023,0,1.414l4.999,4.999
	c0.092,0.093,0.203,0.166,0.326,0.217C26.24,23.973,26.37,24,26.5,24h2v10h-1.586l-4.707-4.707c-0.391-0.391-1.023-0.391-1.414,0
	s-0.391,1.023,0,1.414l4.999,4.999c0.092,0.093,0.203,0.166,0.326,0.217C26.24,35.973,26.37,36,26.5,36h2v3c0,0.553,0.448,1,1,1
	s1-0.447,1-1v-2h2c0.13,0,0.26-0.027,0.382-0.077c0.123-0.051,0.233-0.124,0.326-0.217l4.999-4.999c0.391-0.391,0.391-1.023,0-1.414
	S37.184,29.902,36.793,30.293z"/>
<rect x="17.5" y="39" style="fill:#D4DDE1;" width="24" height="6"/>
<polygon style="fill:#C7C7C7;" points="34.885,59 24.115,59 19.5,45 39.5,45 "/>
<path style="fill:#FFFFFF;" d="M30.5,49h-6c-0.552,0-1-0.447-1-1s0.448-1,1-1h6c0.552,0,1,0.447,1,1S31.052,49,30.5,49z"/>
<path style="fill:#FFFFFF;" d="M33.5,49c-0.26,0-0.52-0.11-0.71-0.29c-0.18-0.19-0.29-0.45-0.29-0.71c0-0.271,0.11-0.521,0.29-0.71
	c0.38-0.37,1.05-0.37,1.42,0c0.18,0.18,0.29,0.439,0.29,0.71c0,0.26-0.11,0.52-0.29,0.71C34.02,48.89,33.76,49,33.5,49z"/>
<path style="fill:#FFFFFF;" d="M29.5,52h-2c-0.552,0-1-0.447-1-1s0.448-1,1-1h2c0.552,0,1,0.447,1,1S30.052,52,29.5,52z"/>
<path style="fill:#FFFFFF;" d="M24.5,52c-0.26,0-0.52-0.11-0.71-0.29c-0.18-0.19-0.29-0.44-0.29-0.71c0-0.26,0.11-0.521,0.29-0.71
	c0.37-0.37,1.05-0.37,1.42,0c0.18,0.189,0.29,0.45,0.29,0.71c0,0.27-0.11,0.52-0.3,0.71C25.02,51.89,24.76,52,24.5,52z"/>
<g>
</g>
<g>
</g>
<g>
</g>
<g>
</g>
<g>
</g>
<g>
</g>
<g>
</g>
<g>
</g>
<g>
</g>
<g>
</g>
<g>
</g>
<g>
</g>
<g>
</g>
<g>
</g>
<g>
</g>
</svg>
