<?xml version="1.0" encoding="iso-8859-1"?>
<!-- Generator: Adobe Illustrator 19.0.0, SVG Export Plug-In . SVG Version: 6.00 Build 0)  -->
<svg version="1.1" id="Layer_1" xmlns="http://www.w3.org/2000/svg" xmlns:xlink="http://www.w3.org/1999/xlink" x="0px" y="0px"
	 viewBox="0 0 511.999 511.999" style="enable-background:new 0 0 511.999 511.999;" xml:space="preserve">
<g>
	<g>
		<path d="M456.111,74.597c-0.559-3.448-3.536-5.981-7.029-5.981c-2.98,0-67.359,0.466-124.253,37.169
			c12.103-36.211,32.14-67.508,59.795-93.204c1.627-1.361,2.54-3.374,2.54-5.452c0-1.05-0.233-2.118-0.724-3.125
			c-1.699-3.483-5.873-4.952-9.377-3.348c-1.652,0.75-31.893,14.696-62.721,43.554c-27.96,26.173-47.138,56.221-56.763,88.507
			c-9.624-32.285-28.797-62.334-56.754-88.506c-29.422-27.542-58.889-41.76-62.422-43.413c-2.74-1.425-6.195-0.934-8.433,1.416
			c-2.712,2.847-2.597,7.361,0.252,10.074l0.071,0.068c28.482,26.389,48.922,58.651,60.95,96.104
			C133.437,69.116,66.036,68.616,62.918,68.616c-3.493,0-6.47,2.533-7.029,5.981c-0.56,3.447,1.464,6.792,4.777,7.897
			c61.611,20.539,99.177,62.685,119.841,94.423c15.655,24.044,24.278,45.94,28.121,57.207h-63.277c-2.004,0-3.915,0.844-5.264,2.325
			s-2.013,3.462-1.827,5.456l17.436,187.326c0.747,7.995,3.156,15.748,6.978,22.732h-40.22c-3.932,0-7.122,3.189-7.122,7.122v3.062
			c0,27.489,22.363,49.852,49.852,49.852h181.627c27.489,0,49.852-22.363,49.852-49.852v-3.062c0-3.932-3.189-7.122-7.122-7.122
			h-40.22c3.822-6.984,6.233-14.738,6.978-22.735l17.436-187.324c0.186-1.995-0.477-3.976-1.827-5.456
			c-1.35-1.481-3.261-2.325-5.264-2.325H303.36c3.804-11.176,12.324-32.83,27.855-56.784c20.68-31.896,58.307-74.241,120.117-94.848
			C454.647,81.388,456.67,78.044,456.111,74.597z M342.626,39.004c-16.877,23.89-29.172,50.902-36.746,80.736
			c-13.732,11.464-25.51,24.741-34.983,39.533c-1.996,3.109-3.881,6.312-5.689,9.577C270.292,106.641,310.562,63.692,342.626,39.004
			z M172.48,38.917c33.225,25.537,75.298,70.704,77.882,136.729c-9.985-20.033-23.443-37.594-40.233-52.471
			C202.634,91.933,190.03,63.735,172.48,38.917z M192.734,169.592c-16.436-25.35-42.998-56.938-82.97-80.391
			c26.894,6.241,60.861,18.622,89.31,43.18l0.001,0.013c24.081,20.78,40.926,47.489,50.07,79.391
			c2.058,7.149,3.74,14.64,5.035,22.34h-30.549C220.539,224.136,211.535,198.589,192.734,169.592z M382.191,466.208
			c-2.02,17.731-17.116,31.549-35.378,31.549H165.186c-18.262,0-33.358-13.818-35.378-31.549H382.191z M358.832,248.367
			l-16.712,179.54c-0.836,8.963-4.252,17.218-9.906,24.057H179.785c-5.655-6.839-9.071-15.093-9.906-24.055l-16.712-179.543H358.832
			z M319.265,169.592c-18.801,28.997-27.805,54.544-30.896,64.532h-19.779c-1.313-8.315-3.034-16.431-5.18-24.194
			c4.656-15.61,11.189-30.063,19.478-42.969c9.09-14.192,20.475-26.89,33.845-37.746c27.547-22.406,59.703-33.985,85.422-39.967
			C362.225,112.698,335.69,144.259,319.265,169.592z"/>
	</g>
</g>
<g>
</g>
<g>
</g>
<g>
</g>
<g>
</g>
<g>
</g>
<g>
</g>
<g>
</g>
<g>
</g>
<g>
</g>
<g>
</g>
<g>
</g>
<g>
</g>
<g>
</g>
<g>
</g>
<g>
</g>
</svg>
