<?xml version="1.0" encoding="iso-8859-1"?>
<!-- Generator: Adobe Illustrator 17.1.0, SVG Export Plug-In . SVG Version: 6.00 Build 0)  -->
<!DOCTYPE svg PUBLIC "-//W3C//DTD SVG 1.1//EN" "http://www.w3.org/Graphics/SVG/1.1/DTD/svg11.dtd">
<svg version="1.1" id="Capa_1" xmlns="http://www.w3.org/2000/svg" xmlns:xlink="http://www.w3.org/1999/xlink" x="0px" y="0px"
	 viewBox="0 0 350 350" style="enable-background:new 0 0 350 350;" xml:space="preserve">
<path d="M271,322.5H77c-12.683,0-23-10.318-23-23v-186c-0.047-0.062-0.092-0.125-0.136-0.19l-53-78
	c-1.041-1.532-1.149-3.513-0.283-5.15C1.448,28.523,3.149,27.5,5,27.5h53c0.169,0,0.336,0.008,0.5,0.025
	c0.164-0.017,0.331-0.025,0.5-0.025h274.5c9.098,0,16.5,7.402,16.5,16.5v175.5c0,2.761-2.238,5-5,5h-17c-2.762,0-5-2.239-5-5v-167
	c0-2.761,2.238-5,5-5s5,2.239,5,5v162h7V44c0-3.584-2.916-6.5-6.5-6.5H294v262C294,312.182,283.683,322.5,271,322.5z M64,144.5v155
	c0,7.168,5.832,13,13,13h194c7.168,0,13-5.832,13-13v-155H119v22h10c2.762,0,5,2.239,5,5s-2.238,5-5,5h-10v73h10
	c2.762,0,5,2.239,5,5c0,2.761-2.238,5-5,5h-14c-0.169,0-0.336-0.008-0.5-0.025c-0.164,0.017-0.331,0.025-0.5,0.025
	c-2.762,0-5-2.239-5-5v-110H64z M119,134.5h165v-97H119v46h10c2.762,0,5,2.239,5,5s-2.238,5-5,5h-10V134.5z M64,134.5h45v-97H64
	V134.5z M14.442,37.5L53,94.245V37.5H14.442z"/>
<g>
</g>
<g>
</g>
<g>
</g>
<g>
</g>
<g>
</g>
<g>
</g>
<g>
</g>
<g>
</g>
<g>
</g>
<g>
</g>
<g>
</g>
<g>
</g>
<g>
</g>
<g>
</g>
<g>
</g>
</svg>
