<?xml version="1.0" encoding="iso-8859-1"?>
<!-- Generator: Adobe Illustrator 18.1.1, SVG Export Plug-In . SVG Version: 6.00 Build 0)  -->
<svg version="1.1" id="Capa_1" xmlns="http://www.w3.org/2000/svg" xmlns:xlink="http://www.w3.org/1999/xlink" x="0px" y="0px"
	 viewBox="0 0 205.898 205.898" style="enable-background:new 0 0 205.898 205.898;" xml:space="preserve">
<g>
	<g>
		<path style="fill:#010002;" d="M122.091,119.552V19.136C122.091,8.582,113.501,0,102.947,0c-10.55,0-19.136,8.582-19.136,19.136
			v100.415c-15.94,7.433-26.154,23.388-26.154,41.06c0,24.973,20.317,45.287,45.29,45.287c24.977,0,45.294-20.317,45.294-45.287
			C148.238,142.939,138.027,126.985,122.091,119.552z M102.947,201.443c-22.518,0-40.835-18.313-40.835-40.831
			c0-16.373,9.731-31.118,24.798-37.56l1.353-0.583V19.136c0-8.095,6.585-14.68,14.68-14.68c8.095,0,14.688,6.585,14.688,14.68
			v103.332l1.349,0.583c15.067,6.442,24.801,21.187,24.801,37.56C143.782,183.126,125.466,201.443,102.947,201.443z"/>
		<path style="fill:#010002;" d="M105.173,135.731V18.485c0-1.231-0.995-2.23-2.23-2.23c-1.235,0-2.23,0.995-2.23,2.23v117.247
			c-12.719,1.127-22.693,11.803-22.693,24.816c0,13.764,11.159,24.923,24.92,24.923c13.764,0,24.923-11.159,24.923-24.923
			C127.871,147.535,117.893,136.862,105.173,135.731z M102.947,181.015c-11.284,0-20.464-9.183-20.464-20.467
			c0-11.026,8.783-19.995,19.716-20.392c0.236,0.086,0.483,0.147,0.748,0.147s0.515-0.061,0.748-0.147
			c10.933,0.397,19.716,9.366,19.716,20.392C123.411,171.828,114.228,181.015,102.947,181.015z"/>
	</g>
</g>
<g>
</g>
<g>
</g>
<g>
</g>
<g>
</g>
<g>
</g>
<g>
</g>
<g>
</g>
<g>
</g>
<g>
</g>
<g>
</g>
<g>
</g>
<g>
</g>
<g>
</g>
<g>
</g>
<g>
</g>
</svg>
