<?xml version="1.0" encoding="iso-8859-1"?>
<!-- Generator: Adobe Illustrator 19.0.0, SVG Export Plug-In . SVG Version: 6.00 Build 0)  -->
<svg version="1.1" id="Capa_1" xmlns="http://www.w3.org/2000/svg" xmlns:xlink="http://www.w3.org/1999/xlink" x="0px" y="0px"
	 viewBox="0 0 400 400" style="enable-background:new 0 0 400 400;" xml:space="preserve">
<g id="XMLID_1043_">
	<path id="XMLID_1075_" style="fill:#91DC5A;" d="M200,135v85h30V0c-33.137,0-60,26.863-60,60v32.57
		C187.475,98.75,200,115.408,200,135z"/>
	<path id="XMLID_1076_" style="fill:#6DA544;" d="M290,220V60c0-33.137-26.863-60-60-60v220H290z"/>
	<path id="XMLID_1077_" style="fill:#91DC5A;" d="M155,90c-24.852,0-45,20.147-45,45v85h45V90z"/>
	<path id="XMLID_1078_" style="fill:#6DA544;" d="M170,220h30v-85c0-19.592-12.525-36.25-30-42.43c-4.693-1.658-9.739-2.57-15-2.57
		v130H170z"/>
	<polygon id="XMLID_1079_" style="fill:#FFDA44;" points="104.706,270 120,400 200,400 200,270 	"/>
	<polygon id="XMLID_1080_" style="fill:#FF9811;" points="200,400 280,400 295.294,270 200,270 	"/>
	<polygon id="XMLID_1081_" style="fill:#FF5023;" points="320,220 290,220 230,220 200,220 155,220 110,220 80,220 80,270 
		104.706,270 200,270 295.294,270 320,270 	"/>
</g>
<g>
</g>
<g>
</g>
<g>
</g>
<g>
</g>
<g>
</g>
<g>
</g>
<g>
</g>
<g>
</g>
<g>
</g>
<g>
</g>
<g>
</g>
<g>
</g>
<g>
</g>
<g>
</g>
<g>
</g>
</svg>
