<?xml version="1.0" encoding="iso-8859-1"?>
<!-- Generator: Adobe Illustrator 18.1.1, SVG Export Plug-In . SVG Version: 6.00 Build 0)  -->
<svg version="1.1" id="Capa_1" xmlns="http://www.w3.org/2000/svg" xmlns:xlink="http://www.w3.org/1999/xlink" x="0px" y="0px"
	 viewBox="0 0 208.286 208.286" style="enable-background:new 0 0 208.286 208.286;" xml:space="preserve">
<g>
	<g>
		<path style="fill:#010002;" d="M123.508,120.937V19.358C123.508,8.682,114.818,0,104.146,0C93.471,0,84.785,8.682,84.785,19.358
			v101.579c-16.123,7.519-26.458,23.66-26.458,41.533c0,25.267,20.557,45.816,45.82,45.816c25.26,0,45.813-20.55,45.813-45.816
			C149.963,144.6,139.634,128.456,123.508,120.937z M145.453,162.473c0,22.779-18.528,41.307-41.307,41.307
			s-41.311-18.528-41.311-41.307c0-16.563,9.849-31.48,25.091-37.993l1.364-0.591V19.358c0-8.188,6.664-14.849,14.852-14.849
			c8.188,0,14.852,6.66,14.852,14.849v104.531l1.367,0.591C135.608,130.993,145.453,145.91,145.453,162.473z"/>
		<path style="fill:#010002;" d="M106.401,96.518c0-1.245-1.009-2.255-2.251-2.255c-1.249,0-2.255,1.009-2.255,2.255v40.788
			c-12.87,1.145-22.962,11.943-22.962,25.106c0,13.925,11.288,25.213,25.213,25.213c13.918,0,25.206-11.288,25.206-25.213
			c0-13.163-10.089-23.957-22.955-25.106V96.518H106.401z M124.846,162.408c0,11.413-9.291,20.704-20.7,20.704
			c-11.42,0-20.707-9.291-20.707-20.704c0-11.155,8.89-20.224,19.949-20.632c0.236,0.089,0.483,0.15,0.755,0.15
			c0.265,0,0.515-0.061,0.752-0.15C115.964,142.184,124.846,151.253,124.846,162.408z"/>
	</g>
</g>
<g>
</g>
<g>
</g>
<g>
</g>
<g>
</g>
<g>
</g>
<g>
</g>
<g>
</g>
<g>
</g>
<g>
</g>
<g>
</g>
<g>
</g>
<g>
</g>
<g>
</g>
<g>
</g>
<g>
</g>
</svg>
