<?xml version="1.0" encoding="iso-8859-1"?>
<!-- Generator: Adobe Illustrator 19.0.0, SVG Export Plug-In . SVG Version: 6.00 Build 0)  -->
<svg version="1.1" id="Layer_1" xmlns="http://www.w3.org/2000/svg" xmlns:xlink="http://www.w3.org/1999/xlink" x="0px" y="0px"
	 viewBox="0 0 502 502" style="enable-background:new 0 0 502 502;" xml:space="preserve">
<g>
	<g>
		<g>
			<path d="M258.545,3.438C256.646,1.254,253.894,0,251,0s-5.646,1.254-7.545,3.437c-7.384,8.491-180.833,209.091-180.833,310.185
				C62.622,417.494,147.128,502,251,502s188.378-84.506,188.378-188.377C439.378,212.529,265.929,11.928,258.545,3.438z M251,482
				c-92.844,0-168.378-75.534-168.378-168.377c0-38.192,30.18-101.43,87.279-182.874C202.994,83.545,236.442,42.764,251,25.437
				c14.538,17.301,47.919,57.998,81.002,105.172c57.162,81.513,87.376,144.797,87.376,183.013C419.378,406.466,343.844,482,251,482z
				"/>
			<path d="M286.369,193c2.559,0,5.119-0.977,7.071-2.929l12-12c3.906-3.906,3.905-10.238,0-14.143
				c-3.905-3.904-10.237-3.904-14.142,0l-12,12c-3.906,3.906-3.905,10.238,0,14.143C281.251,192.023,283.81,193,286.369,193z"/>
			<path d="M308.845,271.698C308.835,271.674,308.835,271.676,308.845,271.698L308.845,271.698z"/>
			<path d="M308.877,271.776c-0.015-0.036-0.025-0.061-0.032-0.077C308.851,271.713,308.862,271.74,308.877,271.776z"/>
			<path d="M309.714,273.797c-0.039-0.095-0.166-0.401-0.431-1.041c-0.224-0.541-0.349-0.841-0.406-0.98
				c0.074,0.178,0.239,0.577,0.405,0.977c-1.549-3.734-5.194-6.17-9.237-6.17h-83.117l53.522-53.521
				c3.905-3.905,3.905-10.237,0-14.143c-3.905-3.904-10.237-3.904-14.143,0l-70.593,70.593c-2.86,2.86-3.715,7.161-2.167,10.898
				c1.548,3.736,5.194,6.173,9.239,6.173h83.117l-86.524,86.524v-26.135c0-5.522-4.477-10-10-10c-5.523,0-10,4.478-10,10v50.277
				c0,5.434,4.571,10,10,10h50.278c5.523,0,10-4.478,10-10c0-5.522-4.477-10-10-10H203.52l103.595-103.596
				c2.861-2.859,3.716-7.159,2.169-10.895C309.473,273.214,309.661,273.668,309.714,273.797z"/>
			<path d="M309.714,273.797C309.733,273.844,309.732,273.841,309.714,273.797L309.714,273.797z"/>
		</g>
	</g>
</g>
<g>
</g>
<g>
</g>
<g>
</g>
<g>
</g>
<g>
</g>
<g>
</g>
<g>
</g>
<g>
</g>
<g>
</g>
<g>
</g>
<g>
</g>
<g>
</g>
<g>
</g>
<g>
</g>
<g>
</g>
</svg>
