<svg xmlns="http://www.w3.org/2000/svg" xmlns:xlink="http://www.w3.org/1999/xlink" version="1.1" x="0px" y="0px" viewBox="0 0 100 100" enable-background="new 0 0 100 100" xml:space="preserve"><g><path fill="#000000" d="M34.16,22.819c-0.043,0-0.086-0.007-0.127-0.022c-0.098-0.035-0.176-0.109-0.217-0.205l-3.816-8.929   c-0.078-0.182-0.001-0.393,0.176-0.482c0.177-0.089,0.394-0.025,0.493,0.146l4.9,8.373c0.052,0.089,0.065,0.195,0.036,0.294   s-0.097,0.182-0.189,0.229l-1.084,0.556C34.278,22.805,34.219,22.819,34.16,22.819z M33.033,18.852l1.314,3.075l0.373-0.191   L33.033,18.852z"></path></g><g><path fill="#000000" d="M33.057,24.22c-0.064,0-0.128-0.016-0.187-0.05l-8.155-4.7c-0.172-0.099-0.237-0.314-0.149-0.491   c0.088-0.178,0.3-0.255,0.481-0.179l8.912,3.741c0.108,0.045,0.189,0.139,0.218,0.252s0.004,0.234-0.069,0.326l-0.757,0.959   C33.278,24.17,33.168,24.22,33.057,24.22z M30.263,21.802l2.701,1.557l0.251-0.318L30.263,21.802z"></path></g><g><path fill="#000000" d="M50.588,15.404c-0.035,0-0.071-0.005-0.105-0.015l-1.205-0.353c-0.101-0.03-0.185-0.101-0.231-0.195   s-0.051-0.205-0.012-0.303l3.441-8.693c0.072-0.183,0.274-0.279,0.463-0.219c0.188,0.06,0.297,0.255,0.25,0.447l-2.236,9.046   c-0.024,0.1-0.089,0.184-0.178,0.235C50.718,15.387,50.653,15.404,50.588,15.404z M49.883,14.432l0.435,0.127l0.807-3.265   L49.883,14.432z"></path></g><g><path fill="#000000" d="M47.216,15.404c-0.168,0-0.321-0.114-0.363-0.284l-2.221-8.878c-0.047-0.189,0.059-0.384,0.244-0.446   s0.387,0.028,0.464,0.208l3.69,8.599c0.045,0.104,0.04,0.224-0.014,0.324c-0.053,0.1-0.149,0.171-0.261,0.192l-1.469,0.279   C47.263,15.402,47.24,15.404,47.216,15.404z M46.493,10.591l1.001,4.003l0.663-0.125L46.493,10.591z"></path></g><g><path fill="#000000" d="M30.141,36.694c-0.005,0-0.01,0-0.016,0l-9.077-0.376c-0.197-0.008-0.354-0.168-0.359-0.366   c-0.004-0.198,0.145-0.365,0.342-0.382l9.53-0.839c0.131-0.011,0.253,0.044,0.331,0.146c0.078,0.102,0.098,0.237,0.053,0.358   l-0.453,1.215C30.438,36.597,30.297,36.694,30.141,36.694z M26.872,35.808l3.013,0.125l0.15-0.403L26.872,35.808z"></path></g><g><path fill="#000000" d="M30.842,34.853c-0.083,0-0.167-0.027-0.236-0.084l-7.385-5.99c-0.154-0.125-0.184-0.347-0.069-0.508   c0.115-0.162,0.333-0.208,0.503-0.101l8.193,5.091c0.094,0.059,0.158,0.156,0.173,0.266s-0.018,0.221-0.092,0.303l-0.808,0.899   C31.047,34.811,30.944,34.853,30.842,34.853z M28.329,31.957l2.472,2.005l0.271-0.301L28.329,31.957z"></path></g><g><path fill="#000000" d="M63.732,23.071c-0.059,0-0.116-0.014-0.169-0.04l-1.119-0.565c-0.093-0.047-0.161-0.129-0.19-0.229   c-0.029-0.099-0.017-0.206,0.036-0.295l5.043-8.616c0.1-0.171,0.312-0.236,0.492-0.146c0.177,0.089,0.254,0.3,0.176,0.482   l-3.924,9.181c-0.041,0.095-0.119,0.169-0.216,0.205C63.819,23.063,63.775,23.071,63.732,23.071z M63.139,21.976l0.406,0.205   l1.424-3.332L63.139,21.976z"></path></g><g><path fill="#000000" d="M64.447,24.506c-0.036,0-0.073-0.005-0.108-0.016c-0.1-0.03-0.182-0.1-0.228-0.192l-0.557-1.122   c-0.046-0.093-0.052-0.2-0.016-0.297s0.111-0.175,0.206-0.215l9.207-3.864c0.184-0.076,0.394,0.002,0.481,0.179   s0.022,0.393-0.148,0.491l-8.65,4.986C64.577,24.489,64.513,24.506,64.447,24.506z M64.404,23.2l0.201,0.406l3.136-1.807   L64.404,23.2z"></path></g><g><path fill="#000000" d="M67.307,36.694c-0.171,0-0.321-0.116-0.363-0.283l-0.316-1.252c-0.03-0.118-0.001-0.243,0.078-0.335   c0.078-0.092,0.188-0.139,0.318-0.13l9.945,0.876c0.197,0.018,0.347,0.185,0.342,0.383s-0.163,0.358-0.36,0.365l-9.629,0.376   C67.316,36.694,67.312,36.694,67.307,36.694z M67.483,35.487l0.112,0.445l3.427-0.134L67.483,35.487z"></path></g><g><path fill="#000000" d="M66.787,35.152c-0.017,0-0.034-0.001-0.051-0.003c-0.103-0.014-0.194-0.07-0.255-0.154l-0.725-1.019   c-0.06-0.084-0.082-0.189-0.062-0.291c0.02-0.102,0.081-0.19,0.169-0.245l8.479-5.27c0.166-0.105,0.388-0.062,0.504,0.101   c0.114,0.161,0.084,0.384-0.069,0.508l-7.754,6.289C66.956,35.123,66.873,35.152,66.787,35.152z M66.6,33.866l0.262,0.368   l2.802-2.273L66.6,33.866z"></path></g><g><path fill="#000000" stroke="#231F20" stroke-linecap="round" stroke-linejoin="round" stroke-miterlimit="10" d="M52.562,24.779"></path></g><g><path fill="#000000" stroke="#231F20" stroke-linecap="round" stroke-linejoin="round" stroke-miterlimit="10" d="M49.574,32.795"></path></g><g><path fill="#000000" d="M64.348,94.518H33.914c-0.234,0-0.437-0.162-0.488-0.39l-8.353-37.021   c-0.033-0.148,0.002-0.304,0.097-0.423c0.095-0.118,0.239-0.188,0.391-0.188h48.025c0.154,0,0.299,0.071,0.395,0.192   c0.095,0.121,0.128,0.279,0.091,0.429l-9.238,37.021C64.777,94.361,64.577,94.518,64.348,94.518z M34.314,93.518h29.643   l8.989-36.021h-46.76L34.314,93.518z"></path></g><g><path fill="#000000" d="M75.566,57.498H22.812V42.75h52.754V57.498z M23.812,56.498h50.754V43.75H23.812V56.498z"></path></g><g><path fill="none" d="M66.961,38.245c0-2.255-1.098-4.394-2.938-5.72l-0.381-0.276l0.252-0.397c0.721-1.132,1.1-2.436,1.1-3.771   c0-3.89-3.164-7.054-7.053-7.054c-0.521,0-1.049,0.062-1.576,0.183l-0.49,0.113l-0.109-0.491c-0.713-3.193-3.604-5.511-6.878-5.511   c-3.32,0-6.225,2.356-6.904,5.603l-0.109,0.525l-0.516-0.147c-0.641-0.183-1.291-0.275-1.934-0.275   c-3.891,0-7.057,3.165-7.057,7.054c0,1.335,0.381,2.641,1.104,3.774l0.252,0.398l-0.381,0.276   c-1.836,1.326-2.934,3.463-2.934,5.717c0,1.955,0.801,3.726,2.09,5.004h32.373C66.16,41.971,66.961,40.2,66.961,38.245z"></path></g><g><path fill="#000000" d="M64.975,31.994c0.668-1.197,1.021-2.541,1.021-3.914c0-4.441-3.613-8.054-8.054-8.054   c-0.436,0-0.879,0.038-1.319,0.113c-0.981-3.4-4.16-5.819-7.734-5.819c-3.617,0-6.801,2.449-7.76,5.893   c-0.564-0.124-1.137-0.187-1.703-0.187c-4.443,0-8.057,3.613-8.057,8.054c0,1.373,0.354,2.718,1.023,3.917   c-1.875,1.524-2.982,3.827-2.982,6.249c0,1.891,0.66,3.629,1.756,5.004h1.334c-1.289-1.279-2.09-3.049-2.09-5.004   c0-2.254,1.098-4.391,2.934-5.717l0.381-0.276l-0.252-0.398c-0.723-1.133-1.104-2.438-1.104-3.774c0-3.89,3.166-7.054,7.057-7.054   c0.643,0,1.293,0.092,1.934,0.275l0.516,0.147l0.109-0.525c0.68-3.247,3.584-5.603,6.904-5.603c3.273,0,6.167,2.317,6.879,5.511   l0.108,0.491l0.49-0.113c0.526-0.121,1.057-0.183,1.575-0.183c3.89,0,7.054,3.165,7.054,7.054c0,1.335-0.379,2.64-1.101,3.771   l-0.252,0.397l0.381,0.276c1.84,1.327,2.938,3.465,2.938,5.72c0,1.955-0.801,3.726-2.09,5.004h1.334   c1.096-1.375,1.756-3.113,1.756-5.004C67.961,35.823,66.852,33.519,64.975,31.994z"></path></g></svg>