<svg xmlns="http://www.w3.org/2000/svg" xmlns:xlink="http://www.w3.org/1999/xlink" version="1.1" x="0px" y="0px" viewBox="0 0 100 100" enable-background="new 0 0 100 100" xml:space="preserve"><g><g><path d="M35.587,40.6c-1.931,0-3.502,1.571-3.502,3.503l0.001,7.877c0.003,0.127-0.093,0.711-0.339,1.283    c-0.225,0.562-0.568,1.041-0.682,1.148l-1.369,1.369V38.96c0-2.864-2.33-5.195-5.194-5.195c-2.864,0-5.194,2.331-5.194,5.195    v28.144l-1.865-1.863c-0.184-0.174-0.668-0.871-0.987-1.672c-0.332-0.773-0.484-1.61-0.476-1.887V47.316    c0-2.405-1.957-4.361-4.362-4.361c-2.404,0-4.361,1.957-4.362,4.361v14.372c0.013,1.688,0.376,3.348,1.145,5.233    c0.79,1.873,1.707,3.304,2.892,4.505l8.017,8.018V93.16c0,1.912,2.798,2.59,5.194,2.59s5.194-0.68,5.194-2.59V65.688l6.327-6.326    c0.899-0.913,1.598-2.002,2.2-3.432c0.581-1.428,0.855-2.688,0.865-3.979v-7.848C39.089,42.171,37.518,40.6,35.587,40.6z     M37.589,51.945c-0.008,1.088-0.248,2.175-0.751,3.412c-0.523,1.24-1.122,2.179-1.88,2.949l-6.542,6.541    c-0.141,0.142-0.22,0.332-0.22,0.529V93.16c0,0.443-1.439,1.09-3.694,1.09s-3.694-0.646-3.694-1.09V79.132    c0-0.198-0.079-0.39-0.22-0.53l-8.232-8.23c-1.042-1.061-1.86-2.339-2.57-4.021c-0.691-1.697-1.019-3.183-1.03-4.664l0.001-14.368    c0-1.578,1.283-2.861,2.861-2.861c1.578,0,2.862,1.284,2.862,2.861V61.66c-0.016,0.5,0.188,1.547,0.59,2.484    c0.385,0.963,0.981,1.85,1.33,2.174l3.128,3.127c0.215,0.216,0.536,0.279,0.817,0.164c0.28-0.115,0.463-0.391,0.463-0.692V38.96    c0-2.037,1.657-3.695,3.694-3.695s3.694,1.658,3.694,3.695v18.632c0,0.303,0.183,0.577,0.463,0.693    c0.279,0.117,0.603,0.052,0.817-0.163l2.628-2.629c0.332-0.308,0.776-1.026,1.028-1.655c0.275-0.641,0.47-1.465,0.452-1.888    v-7.848c0-1.104,0.898-2.003,2.002-2.003s2.002,0.898,2.002,2.003L37.589,51.945L37.589,51.945z"></path><path d="M87.484,19.817c-2.901,0-5.262,2.359-5.262,5.26v11.478c0.006,0.194-0.146,1.037-0.479,1.809    c-0.32,0.805-0.818,1.492-0.96,1.626l-2.777,2.777V13.402c0-3.984-3.238-7.226-7.224-7.226s-7.226,3.241-7.226,7.226v13.446    l-2.591-2.59c-0.194-0.181-0.713-0.928-1.058-1.789c-0.355-0.829-0.521-1.737-0.51-2.023V9.011c0-2.625-2.137-4.761-4.762-4.761    c-2.623,0-4.76,2.136-4.761,4.761v11.441c0.016,1.831,0.409,3.631,1.241,5.671c0.854,2.025,1.846,3.576,3.134,4.884l9.304,9.303    v20.683l-3.783-3.784c-0.326-0.304-1.054-1.379-1.521-2.546c-0.487-1.142-0.733-2.413-0.719-2.884v-8.865    c0-3.315-2.697-6.012-6.015-6.012c-3.313,0-6.013,2.697-6.013,6.012v8.871c0.019,2.406,0.538,4.783,1.639,7.494    c1.134,2.685,2.447,4.734,4.141,6.453l12.268,12.269v14.363c0,2.339,3.672,3.386,7.311,3.386c0,0,0,0,0.001,0    c1.769,0,3.422-0.249,4.653-0.699c2.055-0.751,2.483-1.875,2.483-2.687V57.646l10.222-10.223c1.328-1.35,2.356-2.952,3.241-5.05    c0.854-2.1,1.261-3.96,1.275-5.861V25.077C92.745,22.177,90.385,19.817,87.484,19.817z M91.245,36.507    c-0.015,1.699-0.384,3.384-1.161,5.293c-0.805,1.91-1.734,3.362-2.921,4.568L76.727,56.807c-0.141,0.143-0.22,0.332-0.22,0.53    v35.027c0,0.635-0.938,1.073-1.499,1.278c-1.056,0.385-2.564,0.606-4.14,0.606h-0.001c-3.475,0-5.809-0.976-5.809-1.886V77.689    c0-0.198-0.08-0.391-0.222-0.529L52.355,64.675c-1.551-1.575-2.768-3.475-3.818-5.97c-1.024-2.52-1.509-4.723-1.525-6.926v-8.865    c0-2.488,2.024-4.512,4.511-4.512c2.49,0,4.515,2.024,4.515,4.512v8.837c-0.024,0.699,0.282,2.2,0.833,3.485    c0.525,1.313,1.369,2.592,1.863,3.051l5.045,5.046c0.215,0.215,0.537,0.278,0.816,0.163c0.279-0.116,0.463-0.391,0.463-0.693V40    c0-0.199-0.078-0.39-0.221-0.53l-9.52-9.519c-1.146-1.165-2.041-2.566-2.813-4.402c-0.755-1.852-1.111-3.476-1.127-5.104    L51.381,9.01c0-1.798,1.462-3.261,3.26-3.261c1.797,0,3.26,1.463,3.26,3.261l0.002,11.403c-0.021,0.526,0.207,1.659,0.623,2.628    c0.396,0.99,1.033,1.954,1.401,2.295l3.851,3.851c0.217,0.214,0.537,0.279,0.818,0.163c0.279-0.116,0.463-0.39,0.463-0.693V13.402    c0-3.157,2.567-5.726,5.726-5.726c3.155,0,5.724,2.568,5.724,5.726v31.175c0,0.303,0.184,0.577,0.465,0.693    c0.278,0.117,0.603,0.052,0.815-0.163l4.026-4.03c0.349-0.312,0.951-1.226,1.314-2.141c0.4-0.928,0.618-2.003,0.594-2.423V25.077    c0-2.073,1.688-3.76,3.762-3.76c2.072,0,3.762,1.687,3.762,3.76L91.245,36.507L91.245,36.507z"></path></g></g></svg>