<svg xmlns="http://www.w3.org/2000/svg" xmlns:xlink="http://www.w3.org/1999/xlink" version="1.1" x="0px" y="0px" viewBox="-409 451 100 100" style="enable-background:new -409 451 100 100;" xml:space="preserve"><path d="M-380,527c0,13.3,10.7,24,24,24s24-10.7,24-24c0-13.3-24-42-24-42S-380,513.7-380,527z M-356,549  c-12.1,0-22-9.9-22-22c0-9.5,14.7-29.7,22-38.8c7.3,9.1,22,29.3,22,38.8C-334,539.1-343.9,549-356,549z M-370,528h-2  c0,6.5,7.2,15,16,15c0-1.1,0-1.2,0-2C-363.3,541-369.3,535.1-370,528z M-370,485.7c0-8.4-16-26.7-16-26.7s-16,18.3-16,26.7  c0,8.4,7.2,15.3,16,15.3C-377.2,501-370,494.2-370,485.7z M-386,499c-7.7,0-14-6-14-13.3c0-5.7,9-17.7,14-23.6c5,6,14,18,14,23.6  C-372,493-378.3,499-386,499z M-392,485c0-0.7,0.1-1.4,0.4-2h-2.1c-0.2,0.6-0.3,1.3-0.3,2c0,4.4,3.6,8,8,8c0.7,0,1.4-0.1,2-0.3v-2.1  c-0.6,0.2-1.3,0.4-2,0.4C-389.3,491-392,488.3-392,485z M-332,451c0,0-16,18.3-16,26.7s7.2,15.3,16,15.3c8.8,0,16-6.8,16-15.3  S-332,451-332,451z M-332,491c-7.7,0-14-6-14-13.3c0-5.7,9-17.7,14-23.6c5,6,14,18,14,23.6C-318,485-324.3,491-332,491z M-338,477  c0-0.7,0.1-1.4,0.4-2h-2.1c-0.2,0.6-0.3,1.3-0.3,2c0,4.4,3.6,8,8,8c0.7,0,1.4-0.1,2-0.3v-2.1c-0.6,0.2-1.3,0.4-2,0.4  C-335.3,483-338,480.3-338,477z"></path></svg>