<?xml version="1.0" encoding="iso-8859-1"?>
<!-- Generator: Adobe Illustrator 19.0.0, SVG Export Plug-In . SVG Version: 6.00 Build 0)  -->
<svg version="1.1" id="Layer_1" xmlns="http://www.w3.org/2000/svg" xmlns:xlink="http://www.w3.org/1999/xlink" x="0px" y="0px"
	 viewBox="0 0 490.335 490.335" style="enable-background:new 0 0 490.335 490.335;" xml:space="preserve">
<g>
	<path style="fill:#91DC5A;" d="M245.168,116.773V0l-9.516,5.148c-46.067,24.921-73.57,66.65-73.57,111.625
		c0,41.446,23.37,80.123,63.086,105.443V116.773H245.168z"/>
	<path style="fill:#6DC82A;" d="M265.168,116.773v105.443c39.716-25.319,63.086-63.997,63.086-105.443
		c0-44.975-27.503-86.704-73.57-111.625L245.168,0v116.773H265.168z"/>
	<path style="fill:#91DC5A;" d="M372.786,238.221l85.608-50.888l-9.288-5.55c-20.011-11.957-41.657-18.277-62.599-18.277
		c-17.854,0-34.414,4.462-49.216,13.261c-29.396,17.474-47.198,49.969-48.988,88.406l74.263-44.144L372.786,238.221z"/>
	<path style="fill:#6DC82A;" d="M458.831,198.143l-0.438-10.811l-85.608,50.888l10.219,17.192l-74.251,44.137
		c16.888,8.184,34.602,12.476,51.84,12.476c17.854,0,34.415-4.462,49.217-13.261C442.274,279.467,460.599,241.852,458.831,198.143z"
		/>
	<path style="fill:#6DC82A;" d="M117.549,238.221l-85.608-50.888l-0.438,10.811c-1.768,43.709,16.557,81.324,49.021,100.622
		c14.803,8.8,31.362,13.261,49.217,13.261c17.238,0,34.952-4.292,51.84-12.476l-74.251-44.137L117.549,238.221z"/>
	<path style="fill:#91DC5A;" d="M127.769,221.029l74.263,44.144c-1.789-38.438-19.592-70.932-48.988-88.406
		c-14.803-8.8-31.362-13.261-49.216-13.261c-20.941,0-42.588,6.32-62.599,18.277l-9.288,5.55l85.608,50.888L127.769,221.029z"/>
	<polygon style="fill:#00665A;" points="372.786,238.221 362.567,221.029 288.304,265.173 265.168,278.926 265.168,222.215 
		265.168,116.773 245.168,116.773 225.168,116.773 225.168,222.215 225.168,278.926 202.032,265.173 127.769,221.029 
		117.549,238.221 107.33,255.413 181.582,299.55 225.168,325.459 225.168,354.537 245.168,354.537 265.168,354.537 265.168,325.459 
		308.754,299.55 383.005,255.413 	"/>
	<polygon style="fill:#FF9811;" points="225.168,354.537 152.024,354.537 165.56,490.335 245.168,490.335 245.168,354.537 	"/>
	<polygon style="fill:#FF7956;" points="245.168,490.335 324.775,490.335 338.311,354.537 265.168,354.537 245.168,354.537 	"/>
</g>
<g>
</g>
<g>
</g>
<g>
</g>
<g>
</g>
<g>
</g>
<g>
</g>
<g>
</g>
<g>
</g>
<g>
</g>
<g>
</g>
<g>
</g>
<g>
</g>
<g>
</g>
<g>
</g>
<g>
</g>
</svg>
