<?xml version="1.0" encoding="utf-8"?>
<!-- Generator: Adobe Illustrator 16.0.0, SVG Export Plug-In . SVG Version: 6.00 Build 0)  -->
<!DOCTYPE svg PUBLIC "-//W3C//DTD SVG 1.1//EN" "http://www.w3.org/Graphics/SVG/1.1/DTD/svg11.dtd">
<svg version="1.1" id="Capa_1" xmlns="http://www.w3.org/2000/svg" xmlns:xlink="http://www.w3.org/1999/xlink" x="0px" y="0px"
	 width="1702px" height="630px" viewBox="0 0 1702 630" enable-background="new 0 0 1702 630" xml:space="preserve">
<g>
	<g>
		<g id="XMLID_1_">
			<g>
				<path fill="#C782A2" d="M988.81,393.75v39.37c0,0.85-0.109,1.67-0.31,2.46c-0.09,0.32-0.18,0.62-0.29,0.92c0,0,0,0,0,0.01
					c-0.17,0.45-0.37,0.88-0.59,1.3c-0.311,0.551-0.66,1.08-1.061,1.57c-0.21,0.24-0.42,0.48-0.64,0.7
					c-0.33,0.35-0.689,0.66-1.07,0.93c-0.25,0.19-0.51,0.36-0.779,0.53c-0.13,0.09-0.271,0.17-0.42,0.24
					c-0.41,0.22-0.841,0.42-1.29,0.59c-0.011,0-0.011,0-0.011,0c-0.3,0.11-0.609,0.2-0.92,0.29c-0.79,0.2-1.609,0.31-2.46,0.31
					h-9.85l-26.9,170.41c-1.51,9.57-9.76,16.62-19.45,16.62H779.23c-9.69,0-17.94-7.05-19.45-16.62l-0.48-3.07h117.36
					c9.689,0,17.939-7.05,19.45-16.609l23.8-150.73H732.88h-9.85c0-10.88,8.81-19.689,19.69-19.689h216.56
					c5.439,0,9.84-4.41,9.84-9.84C969.12,402.56,977.94,393.75,988.81,393.75z"/>
				<path fill="#CB202C" d="M988.5,435.58c-0.08,0.31-0.17,0.62-0.29,0.92C988.32,436.2,988.41,435.9,988.5,435.58z"/>
				<path fill="#CB202C" d="M988.21,436.51c-0.16,0.45-0.36,0.88-0.59,1.3C987.84,437.39,988.04,436.96,988.21,436.51z"/>
				<path fill="#CB202C" d="M987.62,437.81c-0.3,0.561-0.65,1.091-1.061,1.57C986.96,438.89,987.31,438.36,987.62,437.81z"/>
				<path fill="#CB202C" d="M986.56,439.38c-0.199,0.25-0.409,0.49-0.64,0.7C986.14,439.86,986.35,439.62,986.56,439.38z"/>
				<path fill="#ED91C5" d="M978.97,383.91c5.41,0,9.84,4.43,9.84,9.84c-10.869,0-19.689,8.81-19.689,19.69
					c0,5.43-4.4,9.84-9.84,9.84H742.72c-10.88,0-19.69,8.81-19.69,19.689c-5.41,0-9.84-4.43-9.84-9.85v-39.37
					c0-5.41,4.43-9.84,9.84-9.84h118.13H851h9.84H978.97z"/>
				<path fill="#CB202C" d="M984.85,441.01c-0.25,0.2-0.51,0.37-0.779,0.53C984.34,441.37,984.6,441.2,984.85,441.01z"/>
				<path fill="#CB202C" d="M983.65,441.78c-0.41,0.229-0.851,0.43-1.29,0.59C982.81,442.2,983.24,442,983.65,441.78z"/>
				<path fill="#CB202C" d="M982.35,442.37c-0.3,0.12-0.609,0.21-0.92,0.29C981.74,442.57,982.05,442.48,982.35,442.37z"/>
				<path fill="#5BA364" d="M977.9,137.86c3.43,25.32-1.311,46.93-15.511,61.12c-2.47,2.46-5.159,4.64-8.069,6.54
					c-1.24,0.81-2.521,1.57-3.83,2.28c-3.07,1.66-6.34,3.05-9.79,4.17c-7.391,2.4-15.601,3.57-24.431,3.57
					c-4.829,0-9.85-0.35-15.029-1.04c-27.141,0-40.4,22.08-40.4,49.22v120.19H851V263.72c0-32.06,17.16-58.05,49.22-58.05h1.721
					c5.22,0,10.229-2.07,13.92-5.76L977.9,137.86z"/>
				<path fill="#5BA364" d="M977.9,1.06c3.43,25.32-1.311,46.93-15.511,61.12c-2.689,2.68-5.64,5.02-8.84,7.03
					c-6.03,3.8-12.93,6.44-20.52,7.96c-0.95,0.19-1.92,0.37-2.9,0.52c-0.78,0.13-1.56,0.24-2.36,0.34
					c-0.84,0.11-1.699,0.21-2.56,0.29c-5.77,0.57-11.87,0.56-18.229,0.02c-1.891-0.16-3.801-0.37-5.73-0.63h-0.01
					c-11.46,0-20.44,3.93-26.99,10.52c-8.98,9.02-13.41,23.02-13.41,38.7v83.83v0.01c-3.83,3.79-7.09,8.19-9.84,13.03v-96.87
					c0-16.03,4.29-30.53,12.59-41.04c8.29-10.5,20.601-17,36.63-17v-0.02h1.721c5.22,0,10.229-2.07,13.92-5.76L977.9,1.06z"/>
				<path fill="#83C68D" d="M977.9,137.85v0.01l-62.04,62.05c-3.69,3.69-8.7,5.76-13.92,5.76h-1.721
					c-32.06,0-49.22,25.99-49.22,58.05v120.19h-9.84v-51.28v-31.82c-10.68-15.78-28.93-26.22-49.22-26.22v-0.03h-1.72
					c-5.22,0-10.23-2.07-13.92-5.76l-62.04-62.05c25.32-3.43,46.94,1.31,61.12,15.52c10.31,10.34,15.58,24.68,16.4,41.5
					c19.19,0.24,36.75,8.37,49.38,21.28v-80.39v-31.82c-10.68-15.78-28.93-26.22-49.22-26.22v-0.03h-1.72
					c-5.22,0-10.23-2.07-13.92-5.76l-62.04-62.05c25.32-3.43,46.94,1.31,61.12,15.52c10.31,10.34,15.58,24.68,16.4,41.5
					c19.19,0.24,36.75,8.37,49.38,21.28v-30.15c0-37.7,21.77-68.39,59.229-68.86c0.82-16.81,6.07-31.14,16.391-41.47
					C930.98,2.35,952.6-2.34,977.9,1.06l-62.04,62.05c-3.69,3.69-8.7,5.76-13.92,5.76h-1.721v0.02c-16.029,0-28.34,6.5-36.63,17
					C855.29,96.4,851,110.9,851,126.93v96.87c2.75-4.84,6.01-9.24,9.84-13.03v-0.01c9.86-9.77,23.22-15.7,39.55-15.91
					c0.82-16.81,6.07-31.14,16.391-41.47C930.98,139.14,952.6,134.44,977.9,137.85z"/>
				<path fill="#3CB44A" d="M962.39,62.18v0.01c-2.689,2.68-5.64,5.02-8.84,7.02C956.75,67.2,959.7,64.86,962.39,62.18z"/>
				<path fill="#0E9247" d="M950.49,207.8c1.31-0.71,2.59-1.47,3.83-2.28C953.08,206.33,951.81,207.09,950.49,207.8z"/>
				<path fill="#3CB44A" d="M930.13,77.69c0.98-0.15,1.95-0.33,2.9-0.52C932.08,77.36,931.11,77.54,930.13,77.69z"/>
				<path fill="#3CB44A" d="M925.21,78.32c0.86-0.08,1.72-0.18,2.56-0.29C926.93,78.14,926.07,78.24,925.21,78.32z"/>
				<path fill="#ED91C5" d="M919.91,442.97l-23.8,150.73c-1.511,9.56-9.761,16.609-19.45,16.609H759.3l-26.42-167.34H919.91z"/>
				<path fill="#0E9247" d="M901.24,214.5c5.18,0.69,10.2,1.04,15.029,1.04c8.83,0,17.04-1.17,24.431-3.57
					c-7.391,2.41-15.601,3.58-24.44,3.58c-4.83,0-9.84-0.35-15-1.04h-0.02V214.5z"/>
				<path fill="#3CB44A" d="M901.24,77.72c-11.45,0-20.431,3.93-26.99,10.51c6.55-6.59,15.53-10.52,26.99-10.52h0.01
					c1.93,0.26,3.84,0.47,5.73,0.63C905.09,78.18,903.18,77.98,901.24,77.72z"/>
				<path fill="#5BA364" d="M841.16,300.81v31.82c0-27.14-23.11-49.22-50.25-49.22v-0.01h-0.01c-1.93,0.26-3.84,0.47-5.72,0.63
					c-1.94,0.16-3.86,0.28-5.74,0.34c-4.77,0.16-9.38,0-13.79-0.5c-0.01,0.01-0.02,0.01-0.04,0c-1.65-0.19-3.27-0.43-4.86-0.71
					c-0.53-0.09-1.06-0.19-1.59-0.3c-2.64-0.53-5.2-1.19-7.67-1.99c-0.49-0.16-0.98-0.32-1.46-0.49c-1.46-0.51-2.9-1.08-4.29-1.69
					c-0.76-0.34-1.52-0.69-2.26-1.07c-5.1-2.51-9.7-5.75-13.7-9.75c-0.71-0.7-1.39-1.43-2.05-2.17c-0.33-0.37-0.66-0.74-0.97-1.12
					c-0.63-0.76-1.25-1.53-1.84-2.32c-0.59-0.8-1.15-1.6-1.7-2.43c-1.63-2.48-3.05-5.1-4.28-7.87c-0.41-0.92-0.79-1.86-1.16-2.81
					c-0.18-0.47-0.36-0.95-0.53-1.44c-0.34-0.96-0.66-1.94-0.96-2.94c-0.47-1.58-0.89-3.2-1.25-4.85c-0.19-0.86-0.37-1.74-0.53-2.62
					c-0.03-0.16-0.06-0.32-0.09-0.48c-0.17-0.99-0.32-1.99-0.46-3c-1.13-8.35-1-17.44,0.3-27.07l62.04,62.05
					c3.69,3.69,8.7,5.76,13.92,5.76h1.72v0.03C812.23,274.59,830.48,285.03,841.16,300.81z"/>
				<path fill="#5BA364" d="M841.16,172.84v31.82c0-27.13-23.11-49.21-50.25-49.21v-0.02h-0.01c-2.57,0.34-5.1,0.6-7.58,0.78
					c-4.94,0.34-9.71,0.35-14.28,0.01c-0.99-0.07-1.98-0.16-2.95-0.27c-0.23-0.02-0.46-0.05-0.7-0.08
					c-0.95-0.11-1.89-0.23-2.81-0.37c-2.25-0.35-4.44-0.78-6.58-1.31c-1.02-0.25-2.02-0.52-3-0.82c-1.01-0.3-2.01-0.62-3-0.97
					c-0.96-0.34-1.91-0.7-2.84-1.08c-0.95-0.39-1.88-0.8-2.8-1.23c-0.89-0.42-1.76-0.86-2.61-1.32c-4.42-2.39-8.43-5.33-11.97-8.87
					c-0.71-0.7-1.39-1.43-2.05-2.17c-0.33-0.37-0.66-0.74-0.97-1.12c-0.63-0.76-1.25-1.53-1.84-2.32c-0.59-0.8-1.15-1.6-1.7-2.43
					c-1.63-2.48-3.05-5.1-4.28-7.87c-0.41-0.92-0.79-1.86-1.16-2.81c-0.18-0.47-0.36-0.95-0.53-1.44c-0.34-0.96-0.66-1.94-0.96-2.94
					c-0.47-1.58-0.89-3.2-1.25-4.85c-0.19-0.86-0.37-1.74-0.53-2.62c-0.03-0.16-0.06-0.32-0.09-0.48c-0.17-0.99-0.32-1.99-0.46-3
					c-1.13-8.35-1-17.44,0.3-27.07l62.04,62.05c3.69,3.69,8.7,5.76,13.92,5.76h1.72v0.03C812.23,146.62,830.48,157.06,841.16,172.84
					z"/>
				<path fill="#3CB44A" d="M790.91,283.4v0.01c-1.93,0.25-3.84,0.46-5.73,0.62c1.88-0.16,3.79-0.37,5.72-0.63H790.91z"/>
				<path fill="#3CB44A" d="M790.91,155.43v0.02c-2.57,0.33-5.1,0.59-7.59,0.76c2.48-0.18,5.01-0.44,7.58-0.78H790.91z"/>
				<path fill="#0E9247" d="M765.65,283.87c4.41,0.5,9.02,0.66,13.79,0.5C774.66,284.54,770.06,284.37,765.65,283.87z"/>
				<path fill="#0E9247" d="M766.09,155.95c0.97,0.11,1.96,0.2,2.95,0.27C768.05,156.15,767.07,156.06,766.09,155.95z"/>
				<path fill="#0E9247" d="M762.58,155.5c0.92,0.14,1.86,0.26,2.81,0.37C764.45,155.77,763.51,155.64,762.58,155.5z"/>
				<path fill="#0E9247" d="M760.75,283.16c1.59,0.28,3.21,0.52,4.86,0.71C763.96,283.69,762.34,283.45,760.75,283.16z"/>
				<path fill="#0E9247" d="M753,153.37c0.98,0.3,1.98,0.57,3,0.82C754.99,153.94,753.99,153.67,753,153.37z"/>
				<path fill="#0E9247" d="M751.49,280.87c2.47,0.8,5.03,1.46,7.67,1.99C756.52,282.34,753.96,281.68,751.49,280.87z"/>
				<path fill="#0E9247" d="M750.03,280.38c0.48,0.17,0.97,0.33,1.46,0.49C751,280.72,750.52,280.55,750.03,280.38z"/>
				<path fill="#3CB44A" d="M750,152.4c-0.96-0.34-1.91-0.7-2.84-1.08C748.09,151.7,749.04,152.06,750,152.4z"/>
				<path fill="#0E9247" d="M743.48,277.62c0.74,0.38,1.5,0.73,2.26,1.07C744.97,278.35,744.22,278,743.48,277.62z"/>
				<path fill="#3CB44A" d="M744.36,150.09c-0.88-0.42-1.76-0.86-2.61-1.32C742.6,149.23,743.47,149.67,744.36,150.09z"/>
				<path fill="#0E9247" d="M729.78,139.9h-0.01c-0.7-0.7-1.39-1.43-2.04-2.17C728.39,138.47,729.07,139.2,729.78,139.9z"/>
				<path fill="#0E9247" d="M729.78,267.87h-0.01c-0.7-0.7-1.39-1.43-2.04-2.17C728.39,266.44,729.07,267.17,729.78,267.87z"/>
				<path fill="#0E9247" d="M724.92,134.29c0.59,0.79,1.21,1.56,1.84,2.32C726.12,135.85,725.51,135.08,724.92,134.29z"/>
				<path fill="#0E9247" d="M724.92,262.26c0.59,0.79,1.21,1.56,1.84,2.32C726.12,263.82,725.51,263.05,724.92,262.26z"/>
				<path fill="#0E9247" d="M723.22,131.86c0.55,0.83,1.11,1.63,1.7,2.43C724.33,133.5,723.77,132.69,723.22,131.86z"/>
				<path fill="#0E9247" d="M723.22,259.83c0.55,0.83,1.11,1.63,1.7,2.43C724.33,261.47,723.77,260.66,723.22,259.83z"/>
				<path fill="#3CB44A" d="M717.78,121.18c0.37,0.95,0.75,1.89,1.16,2.81C718.53,123.07,718.14,122.13,717.78,121.18z"/>
				<path fill="#3CB44A" d="M717.78,249.15c0.37,0.95,0.75,1.89,1.16,2.81C718.53,251.04,718.14,250.1,717.78,249.15z"/>
				<path fill="#3CB44A" d="M716.29,116.8c0.3,1,0.62,1.98,0.96,2.94C716.91,118.77,716.59,117.79,716.29,116.8z"/>
				<path fill="#3CB44A" d="M716.29,244.77c0.3,1,0.62,1.98,0.96,2.94C716.91,246.74,716.59,245.76,716.29,244.77z"/>
				<path fill="#3CB44A" d="M714.51,109.33c0.16,0.88,0.34,1.76,0.53,2.62C714.85,111.09,714.67,110.22,714.51,109.33z"/>
				<path fill="#3CB44A" d="M714.51,237.3c0.16,0.88,0.34,1.76,0.53,2.62C714.85,239.06,714.67,238.19,714.51,237.3z"/>
				<path fill="#3CB44A" d="M713.96,105.85c0.14,1.01,0.29,2.01,0.46,3C714.25,107.86,714.09,106.86,713.96,105.85z"/>
				<path fill="#3CB44A" d="M713.96,233.82c0.14,1.01,0.29,2.01,0.46,3C714.25,235.83,714.09,234.83,713.96,233.82z"/>
			</g>
			<g>
			</g>
		</g>
	</g>
</g>
</svg>
